<svg width="32" height="23" viewBox="0 0 32 23" fill="none" xmlns="http://www.w3.org/2000/svg">
<path d="M31.908 11.068C31.8613 10.9627 30.732 8.45732 28.2213 5.94665C24.876 2.60131 20.6507 0.833313 16 0.833313C11.3493 0.833313 7.12399 2.60131 3.77866 5.94665C1.26799 8.45732 0.133321 10.9667 0.0919873 11.068C0.0313381 11.2044 0 11.352 0 11.5013C0 11.6506 0.0313381 11.7982 0.0919873 11.9347C0.138654 12.04 1.26799 14.544 3.77866 17.0547C7.12399 20.3987 11.3493 22.1667 16 22.1667C20.6507 22.1667 24.876 20.3987 28.2213 17.0547C30.732 14.544 31.8613 12.04 31.908 11.9347C31.9687 11.7982 32 11.6506 32 11.5013C32 11.352 31.9687 11.2044 31.908 11.068ZM16 16.8333C14.9452 16.8333 13.914 16.5205 13.037 15.9345C12.1599 15.3485 11.4763 14.5155 11.0726 13.541C10.669 12.5664 10.5634 11.4941 10.7691 10.4595C10.9749 9.42494 11.4829 8.47463 12.2288 7.72875C12.9746 6.98287 13.9249 6.47492 14.9595 6.26913C15.9941 6.06334 17.0664 6.16896 18.041 6.57263C19.0155 6.97629 19.8485 7.65988 20.4345 8.53694C21.0205 9.41401 21.3333 10.4452 21.3333 11.5C21.3333 12.9145 20.7714 14.271 19.7712 15.2712C18.771 16.2714 17.4145 16.8333 16 16.8333Z" fill="white"/>
</svg>
